<?xml version="1.0" encoding="UTF-8"?>
<svg width="101.59mm" height="82.768mm" version="1.1" viewBox="0 0 101.59 82.768" xmlns="http://www.w3.org/2000/svg">
 <defs>
  <marker id="marker8698" overflow="visible" orient="auto">
   <path transform="matrix(.8 0 0 .8 -4.8 0)" d="m5.77 0-8.65 5v-10z" fill="#fff" fill-rule="evenodd" stroke="#000" stroke-width="1pt"/>
  </marker>
  <marker id="marker8466" overflow="visible" orient="auto">
   <path transform="matrix(-1.1,0,0,-1.1,-1.1,0)" d="m8.7186 4.0337-10.926-4.0177 10.926-4.0177c-1.7455 2.3721-1.7354 5.6175-6e-7 8.0354z" fill-rule="evenodd" stroke="#000" stroke-linejoin="round" stroke-width=".625"/>
  </marker>
  <marker id="marker7642" overflow="visible" orient="auto">
   <path transform="matrix(.8 0 0 .8 5.6 0)" d="m0-7.0711-7.0711 7.0711 7.0711 7.0711 7.071-7.0711z" fill-rule="evenodd" stroke="#000" stroke-width="1pt"/>
  </marker>
  <marker id="marker7216" overflow="visible" orient="auto">
   <path transform="matrix(.8 0 0 .8 5.6 0)" d="m0-7.0711-7.0711 7.0711 7.0711 7.0711 7.071-7.0711z" fill-rule="evenodd" stroke="#000" stroke-width="1pt"/>
  </marker>
  <marker id="DiamondLstart" overflow="visible" orient="auto">
   <path transform="matrix(.8 0 0 .8 5.6 0)" d="m0-7.0711-7.0711 7.0711 7.0711 7.0711 7.071-7.0711z" fill-rule="evenodd" stroke="#000" stroke-width="1pt"/>
  </marker>
  <marker id="marker6238" overflow="visible" orient="auto">
   <path transform="matrix(.8 0 0 .8 -4.8 0)" d="m5.77 0-8.65 5v-10z" fill="#fff" fill-rule="evenodd" stroke="#000" stroke-width="1pt"/>
  </marker>
  <marker id="marker5442" overflow="visible" orient="auto">
   <path transform="matrix(-.8 0 0 -.8 4.8 0)" d="m5.77 0-8.65 5v-10z" fill="#fff" fill-rule="evenodd" stroke="#000" stroke-width="1pt"/>
  </marker>
  <marker id="EmptyTriangleInL" overflow="visible" orient="auto">
   <path transform="matrix(-.8 0 0 -.8 4.8 0)" d="m5.77 0-8.65 5v-10z" fill="#fff" fill-rule="evenodd" stroke="#000" stroke-width="1pt"/>
  </marker>
  <marker id="marker3199" overflow="visible" orient="auto">
   <path transform="matrix(1.1,0,0,1.1,1.1,0)" d="m8.7186 4.0337-10.926-4.0177 10.926-4.0177c-1.7455 2.3721-1.7354 5.6175-6e-7 8.0354z" fill-rule="evenodd" stroke="#000" stroke-linejoin="round" stroke-width=".625"/>
  </marker>
  <marker id="marker2013" overflow="visible" orient="auto">
   <path transform="matrix(1.1,0,0,1.1,1.1,0)" d="m8.7186 4.0337-10.926-4.0177 10.926-4.0177c-1.7455 2.3721-1.7354 5.6175-6e-7 8.0354z" fill-rule="evenodd" stroke="#000" stroke-linejoin="round" stroke-width=".625"/>
  </marker>
  <marker id="marker1943" overflow="visible" orient="auto">
   <path transform="matrix(-1.1,0,0,-1.1,-1.1,0)" d="m8.7186 4.0337-10.926-4.0177 10.926-4.0177c-1.7455 2.3721-1.7354 5.6175-6e-7 8.0354z" fill-rule="evenodd" stroke="#000" stroke-linejoin="round" stroke-width=".625"/>
  </marker>
  <filter id="filter949" x="-.00012446" y="-.00017424" width="1.0002" height="1.0003" color-interpolation-filters="sRGB">
   <feGaussianBlur stdDeviation="0.002469696"/>
  </filter>
  <marker id="marker1701-6" overflow="visible" orient="auto">
   <path transform="matrix(-1.1,0,0,-1.1,-1.1,0)" d="m8.7186 4.0337-10.926-4.0177 10.926-4.0177c-1.7455 2.3721-1.7354 5.6175-6e-7 8.0354z" fill-rule="evenodd" stroke="#000" stroke-linejoin="round" stroke-width=".625"/>
  </marker>
  <marker id="marker1747-3" overflow="visible" orient="auto">
   <path transform="matrix(-1.1,0,0,-1.1,-1.1,0)" d="m8.7186 4.0337-10.926-4.0177 10.926-4.0177c-1.7455 2.3721-1.7354 5.6175-6e-7 8.0354z" fill-rule="evenodd" stroke="#000" stroke-linejoin="round" stroke-width=".625"/>
  </marker>
 </defs>
 <g transform="translate(-21.903 -40.882)">
  <g fill="#000000" font-family="Arial" font-size="4.9389px" font-weight="bold" letter-spacing="0px" stroke-width=".26458" word-spacing="0px">
   <text x="25.702381" y="48.834526" style="font-feature-settings:normal;font-variant-caps:normal;font-variant-ligatures:normal;font-variant-numeric:normal;line-height:1.25" xml:space="preserve"><tspan x="25.702381" y="48.834526" stroke-width=".26458">index.html</tspan></text>
   <text x="92.55574" y="48.834526" style="font-feature-settings:normal;font-variant-caps:normal;font-variant-ligatures:normal;font-variant-numeric:normal;line-height:1.25" xml:space="preserve"><tspan x="92.55574" y="48.834526" stroke-width=".26458">dev-cs.html</tspan></text>
   <text x="88.446419" y="94.228836" style="font-feature-settings:normal;font-variant-caps:normal;font-variant-ligatures:normal;font-variant-numeric:normal;line-height:1.25" xml:space="preserve"><tspan x="88.446419" y="94.228836" stroke-width=".26458">dev-web.html</tspan></text>
   <text x="25.859133" y="93.738083" style="font-feature-settings:normal;font-variant-caps:normal;font-variant-ligatures:normal;font-variant-numeric:normal;line-height:1.25" xml:space="preserve"><tspan x="25.859133" y="93.738083" stroke-width=".26458">objetivo.html</tspan></text>
  </g>
  <g fill="none" stroke="#000">
   <path d="m54.429 47.096h33.64" filter="url(#filter949)" marker-end="url(#marker1943)" marker-start="url(#marker2013)" opacity=".996" stop-color="#000000" stroke-width=".79375" style="font-variation-settings:normal"/>
   <path d="m58.586 92.226h28.348" marker-end="url(#marker6238)" marker-start="url(#marker3199)" stroke-width=".52917"/>
   <path d="m35.908 86.557v-28.046" marker-end="url(#DiamondLstart)" stroke-width=".52917"/>
   <path d="m104.78 52.031v34.782" marker-end="url(#marker1701-6)" marker-start="url(#marker5442)" stroke-width=".49884"/>
   <g stroke-width=".52917">
    <path d="m54.429 47.096h33.64" marker-end="url(#marker1747-3)" marker-start="url(#EmptyTriangleInL)"/>
    <path d="m99.166 88.499-51.583-31.788" marker-end="url(#marker7216)"/>
    <path d="m30.366 106.11 31.003-0.26727" marker-end="url(#marker7642)"/>
    <path d="m30.366 113.88 36.081-0.26727" marker-end="url(#marker8698)"/>
    <path d="m30.366 121.37 36.616-0.26727" marker-end="url(#marker8466)"/>
   </g>
  </g>
  <g fill="#000000" font-family="Arial" font-size="4.9389px" font-weight="bold" letter-spacing="0px" stroke-width=".26458" word-spacing="0px">
   <text x="72.162773" y="107.12388" style="font-feature-settings:normal;font-variant-caps:normal;font-variant-ligatures:normal;font-variant-numeric:normal;line-height:1.25" xml:space="preserve"><tspan x="72.162773" y="107.12388" stroke-width=".26458">voltar para início</tspan></text>
   <text x="72.162773" y="115.38314" style="font-feature-settings:normal;font-variant-caps:normal;font-variant-ligatures:normal;font-variant-numeric:normal;line-height:1.25" xml:space="preserve"><tspan x="72.162773" y="115.38314" stroke-width=".26458">voltar</tspan></text>
   <text x="72.013252" y="121.93424" style="font-feature-settings:normal;font-variant-caps:normal;font-variant-ligatures:normal;font-variant-numeric:normal;line-height:1.25" xml:space="preserve"><tspan x="72.013252" y="121.93424" stroke-width=".26458">avançar</tspan></text>
  </g>
  <rect transform="scale(.26458)" x="82.833" y="154.55" width="383.86" height="218.19" fill="none" filter="url(#filter949)" marker-end="url(#Arrow2Lend)" stop-color="#000000" stroke="#000" stroke-dasharray="8, 8" stroke-width="2" style="font-variation-settings:normal;paint-order:markers fill stroke"/>
 </g>
</svg>
